<?xml version="1.0" standalone="no"?>
<!DOCTYPE svg PUBLIC "-//W3C//DTD SVG 20010904//EN"
 "http://www.w3.org/TR/2001/REC-SVG-20010904/DTD/svg10.dtd">
<svg version="1.0" xmlns="http://www.w3.org/2000/svg"
 width="500.000000pt" height="500.000000pt" viewBox="0 0 500.000000 500.000000"
 preserveAspectRatio="xMidYMid meet">
<metadata>
Created by potrace 1.14, written by Peter Selinger 2001-2017
</metadata>
<g transform="translate(0.000000,500.000000) scale(0.100000,-0.100000)"
fill="#000000" stroke="none">
<path d="M630 3082 l2 -919 530 1 c291 1 531 -1 534 -3 2 -2 -18 -21 -44 -42
-122 -98 -422 -336 -446 -354 -15 -11 -37 -28 -49 -39 -12 -10 -38 -30 -57
-45 -19 -14 -44 -33 -55 -43 -66 -54 -123 -100 -185 -148 -25 -19 -47 -37 -50
-40 -3 -3 -25 -21 -50 -40 -25 -19 -52 -40 -60 -47 -8 -7 -31 -25 -50 -40
l-35 -28 0 -135 0 -135 1148 -2 c631 -1 1148 1 1148 5 1 4 2 122 3 262 l1 255
345 -1 c190 0 361 -3 380 -6 90 -14 159 -70 180 -143 7 -24 13 -106 14 -182 1
-76 6 -150 10 -165 l8 -28 240 0 c223 0 240 2 233 18 -15 38 -17 65 -20 254
-4 226 -13 268 -76 348 -39 50 -102 93 -166 115 l-36 12 72 38 c71 38 136 94
147 127 3 10 9 18 13 18 15 0 35 107 34 182 -1 64 -6 87 -32 142 -47 97 -110
146 -246 192 -38 13 -67 24 -62 25 4 1 15 2 25 4 200 23 352 136 395 295 13
47 15 195 4 248 -25 119 -143 238 -271 273 l-40 11 61 29 c114 55 175 149 177
278 3 123 -38 208 -128 270 -44 30 -156 72 -231 87 -22 4 -495 9 -1051 11
-822 3 -1015 1 -1025 -9 -8 -8 -50 -42 -94 -78 -44 -35 -87 -70 -95 -77 -70
-64 -566 -460 -570 -456 -3 2 -5 143 -5 311 l0 307 -238 3 -238 2 1 -918z
m1824 170 l1 -709 -70 61 c-38 34 -74 66 -80 72 -5 6 -77 71 -160 145 -82 74
-156 141 -165 149 -9 8 -51 47 -94 85 -43 39 -88 79 -100 90 -12 11 -55 49
-94 84 -40 36 -72 68 -72 72 0 4 163 137 362 296 200 158 385 306 413 329 27
23 52 40 54 38 1 -1 4 -322 5 -712z m1306 411 c105 -44 96 -193 -13 -224 -17
-5 -209 -9 -424 -9 l-393 0 -1 40 c0 22 0 65 0 95 0 30 0 67 0 83 l1 27 403
-1 c253 -1 411 -5 427 -11z m-2545 -568 c49 -44 99 -89 111 -100 17 -16 102
-92 168 -150 6 -5 36 -32 66 -60 30 -27 91 -81 134 -120 44 -38 102 -90 129
-115 l49 -45 -374 1 c-205 1 -378 2 -383 3 -7 1 -10 116 -9 339 1 185 2 339 3
342 1 3 5 0 9 -5 4 -6 47 -46 97 -90z m2606 -13 c68 -33 90 -96 62 -176 -16
-47 -44 -73 -94 -86 -33 -9 -221 -12 -714 -10 l-150 0 2 98 c1 53 2 120 2 148
l1 50 423 -1 c418 0 422 0 468 -23z m-1372 -1286 l0 -423 -555 -1 -555 -1 43
35 c52 42 53 42 103 79 22 17 42 32 45 36 3 3 32 25 65 50 33 24 66 50 75 56
8 7 98 76 199 154 101 77 189 145 195 150 17 14 195 150 241 184 50 37 52 39
95 75 19 16 38 30 42 30 4 0 7 -191 7 -424z m1275 358 c22 -10 48 -31 59 -45
36 -50 29 -140 -15 -183 -46 -46 -80 -49 -466 -50 -200 -1 -369 2 -375 6 -13
8 -18 279 -6 288 4 3 177 5 386 5 354 -1 381 -2 417 -21z"/>
</g>
</svg>
